#tb 0: 1/1
#media_type 0: video
#codec_id 0: rawvideo
#dimensions 0: 328x240
#sar 0: 1/1
0,          0,          0,        1,   314880, 0x7b9cad8f
0,          1,          1,        1,   314880, 0x0184436f
0,          2,          2,        1,   314880, 0x7e3f2776
0,          3,          3,        1,   314880, 0x0dc5e915
0,          4,          4,        1,   314880, 0xcf9c76ef
